# Blender v2.78 (sub 0) OBJ File: ''
# www.blender.org
mtllib spikes.mtl
o Cube.002
v -0.153293 0.183697 -0.478569
v -0.006276 0.183697 -0.203519
v -0.001552 0.183697 -0.251474
v -0.199404 0.183697 -0.492557
v -0.006276 0.183697 -0.299428
v -0.247359 0.183697 -0.497280
v -0.020263 0.183697 -0.345540
v -0.042978 0.183697 -0.388037
v -0.073547 0.183697 -0.425285
v -0.110796 0.183697 -0.455854
v -0.020263 0.183697 -0.157408
v -0.042978 0.183697 -0.114911
v -0.073547 0.183697 -0.077662
v -0.110796 0.183697 -0.047093
v -0.153293 0.183697 -0.024378
v -0.199404 0.183697 -0.010390
v -0.247359 0.183697 -0.005667
v -0.295313 0.183697 -0.010390
v -0.341425 0.183697 -0.024378
v -0.383922 0.183697 -0.047093
v -0.421170 0.183697 -0.077662
v -0.451740 0.183697 -0.114911
v -0.474454 0.183697 -0.157408
v -0.488442 0.183697 -0.203520
v -0.493165 0.183697 -0.251474
v -0.488442 0.183697 -0.299428
v -0.474454 0.183697 -0.345540
v -0.451739 0.183697 -0.388037
v -0.421170 0.183697 -0.425285
v -0.383921 0.183697 -0.455855
v -0.341425 0.183697 -0.478569
v -0.295313 0.183697 -0.492557
v -0.247359 0.884399 -0.251474
v 0.159453 0.183697 -0.478569
v 0.012435 0.183697 -0.203519
v 0.007712 0.183697 -0.251474
v 0.205564 0.183697 -0.492557
v 0.012435 0.183697 -0.299428
v 0.253519 0.183697 -0.497280
v 0.026423 0.183697 -0.345540
v 0.049138 0.183697 -0.388037
v 0.079707 0.183697 -0.425285
v 0.116956 0.183697 -0.455854
v 0.026423 0.183697 -0.157408
v 0.049138 0.183697 -0.114911
v 0.079707 0.183697 -0.077662
v 0.116956 0.183697 -0.047093
v 0.159453 0.183697 -0.024378
v 0.205564 0.183697 -0.010390
v 0.253519 0.183697 -0.005667
v 0.301473 0.183697 -0.010390
v 0.347585 0.183697 -0.024378
v 0.390082 0.183697 -0.047093
v 0.427330 0.183697 -0.077663
v 0.457899 0.183697 -0.114911
v 0.480614 0.183697 -0.157408
v 0.494602 0.183697 -0.203520
v 0.499325 0.183697 -0.251474
v 0.494602 0.183697 -0.299429
v 0.480614 0.183697 -0.345540
v 0.457899 0.183697 -0.388037
v 0.427330 0.183697 -0.425285
v 0.390081 0.183697 -0.455855
v 0.347584 0.183697 -0.478570
v 0.301473 0.183697 -0.492557
v 0.253519 0.884399 -0.251474
v -0.153293 0.183697 0.478569
v -0.006275 0.183697 0.203519
v -0.001552 0.183697 0.251474
v -0.199404 0.183697 0.492557
v -0.006275 0.183697 0.299428
v -0.247359 0.183697 0.497280
v -0.020263 0.183697 0.345540
v -0.042978 0.183697 0.388037
v -0.073547 0.183697 0.425285
v -0.110796 0.183697 0.455854
v -0.020263 0.183697 0.157408
v -0.042978 0.183697 0.114911
v -0.073547 0.183697 0.077662
v -0.110796 0.183697 0.047093
v -0.153293 0.183697 0.024378
v -0.199404 0.183697 0.010391
v -0.247359 0.183697 0.005667
v -0.295313 0.183697 0.010391
v -0.341425 0.183697 0.024378
v -0.383922 0.183697 0.047093
v -0.421170 0.183697 0.077663
v -0.451740 0.183697 0.114911
v -0.474454 0.183697 0.157408
v -0.488442 0.183697 0.203520
v -0.493165 0.183697 0.251474
v -0.488442 0.183697 0.299429
v -0.474454 0.183697 0.345540
v -0.451739 0.183697 0.388037
v -0.421170 0.183697 0.425286
v -0.383921 0.183697 0.455855
v -0.341425 0.183697 0.478570
v -0.295313 0.183697 0.492557
v -0.247359 0.884399 0.251474
v 0.159453 0.183697 0.478569
v 0.012435 0.183697 0.203519
v 0.007712 0.183697 0.251474
v 0.205564 0.183697 0.492557
v 0.012435 0.183697 0.299428
v 0.253519 0.183697 0.497280
v 0.026423 0.183697 0.345540
v 0.049138 0.183697 0.388037
v 0.079707 0.183697 0.425285
v 0.116956 0.183697 0.455854
v 0.026423 0.183697 0.157408
v 0.049138 0.183697 0.114911
v 0.079707 0.183697 0.077662
v 0.116956 0.183697 0.047093
v 0.159453 0.183697 0.024378
v 0.205564 0.183697 0.010390
v 0.253519 0.183697 0.005667
v 0.301473 0.183697 0.010391
v 0.347585 0.183697 0.024378
v 0.390082 0.183697 0.047093
v 0.427330 0.183697 0.077663
v 0.457899 0.183697 0.114911
v 0.480614 0.183697 0.157408
v 0.494602 0.183697 0.203520
v 0.499325 0.183697 0.251474
v 0.494602 0.183697 0.299429
v 0.480614 0.183697 0.345540
v 0.457899 0.183697 0.388037
v 0.427330 0.183697 0.425285
v 0.390081 0.183697 0.455855
v 0.347585 0.183697 0.478570
v 0.301473 0.183697 0.492557
v 0.253519 0.884399 0.251474
v 0.512408 -0.095880 -0.464926
v 0.468006 -0.107727 -0.464926
v 0.468006 -0.095880 -0.509328
v 0.505820 -0.101695 -0.464926
v 0.505820 -0.095880 -0.486720
v 0.501925 -0.101789 -0.487073
v 0.468006 -0.105969 -0.486720
v 0.489799 -0.105969 -0.464926
v 0.490152 -0.104930 -0.487073
v 0.489799 -0.095880 -0.502740
v 0.468006 -0.101695 -0.502740
v 0.490152 -0.101789 -0.498845
v 0.512408 -0.095880 0.464926
v 0.468006 -0.095880 0.509328
v 0.468006 -0.107727 0.464926
v 0.505820 -0.095880 0.486719
v 0.505820 -0.101695 0.464926
v 0.501925 -0.101789 0.487072
v 0.468006 -0.101695 0.502740
v 0.489799 -0.095880 0.502740
v 0.490153 -0.101789 0.498845
v 0.489799 -0.105969 0.464926
v 0.468006 -0.105969 0.486719
v 0.490153 -0.104930 0.487072
v -0.506248 -0.095880 -0.464926
v -0.461846 -0.095880 -0.509328
v -0.461846 -0.107727 -0.464926
v -0.499660 -0.095880 -0.486720
v -0.499660 -0.101695 -0.464926
v -0.495765 -0.101789 -0.487073
v -0.461846 -0.101695 -0.502740
v -0.483640 -0.095880 -0.502740
v -0.483993 -0.101789 -0.498845
v -0.483640 -0.105969 -0.464926
v -0.461846 -0.105969 -0.486720
v -0.483993 -0.104930 -0.487073
v -0.461846 -0.095880 0.509328
v -0.506248 -0.095880 0.464926
v -0.461846 -0.107727 0.464926
v -0.483640 -0.095880 0.502740
v -0.461846 -0.101695 0.502740
v -0.483993 -0.101789 0.498845
v -0.499660 -0.101695 0.464926
v -0.499660 -0.095880 0.486720
v -0.495765 -0.101789 0.487073
v -0.461846 -0.105969 0.486720
v -0.483640 -0.105969 0.464926
v -0.483993 -0.104930 0.487073
v 0.512408 0.181815 -0.464926
v 0.468006 0.181815 -0.509328
v 0.468006 0.193662 -0.464926
v 0.505820 0.181815 -0.486720
v 0.505820 0.187630 -0.464926
v 0.501925 0.187724 -0.487073
v 0.468006 0.187630 -0.502740
v 0.489799 0.181815 -0.502740
v 0.490152 0.187724 -0.498845
v 0.489799 0.191904 -0.464926
v 0.468006 0.191904 -0.486720
v 0.490152 0.190865 -0.487073
v 0.512408 0.181815 0.464926
v 0.468006 0.193661 0.464926
v 0.468006 0.181815 0.509328
v 0.505820 0.187630 0.464926
v 0.505820 0.181815 0.486719
v 0.501925 0.187724 0.487072
v 0.468006 0.191904 0.486719
v 0.489799 0.191904 0.464926
v 0.490153 0.190865 0.487072
v 0.489800 0.181815 0.502740
v 0.468006 0.187630 0.502740
v 0.490153 0.187724 0.498845
v -0.461846 0.181815 0.509328
v -0.461846 0.193661 0.464926
v -0.506248 0.181815 0.464926
v -0.461846 0.187630 0.502740
v -0.483640 0.181815 0.502740
v -0.483993 0.187724 0.498845
v -0.483640 0.191904 0.464926
v -0.461846 0.191904 0.486720
v -0.483993 0.190865 0.487073
v -0.499660 0.181815 0.486719
v -0.499660 0.187630 0.464926
v -0.495765 0.187724 0.487073
v -0.506248 0.181815 -0.464926
v -0.461846 0.193662 -0.464926
v -0.461846 0.181815 -0.509328
v -0.499660 0.187630 -0.464926
v -0.499660 0.181815 -0.486720
v -0.495765 0.187724 -0.487073
v -0.461846 0.191904 -0.486719
v -0.483640 0.191904 -0.464926
v -0.483993 0.190865 -0.487073
v -0.483640 0.181815 -0.502740
v -0.461846 0.187630 -0.502740
v -0.483993 0.187724 -0.498845
vn -0.0000 0.3310 -0.9436
vn 0.0000 1.0000 0.0000
vn 0.1841 0.3310 -0.9255
vn 0.3611 0.3310 -0.8718
vn 0.6672 0.3310 -0.6672
vn 0.7846 0.3310 -0.5242
vn 0.5242 0.3310 -0.7846
vn 0.8718 0.3310 -0.3611
vn 0.9255 0.3310 -0.1841
vn 0.9436 0.3310 -0.0000
vn 0.9255 0.3310 0.1841
vn 0.8718 0.3310 0.3611
vn 0.7846 0.3310 0.5242
vn 0.6672 0.3310 0.6672
vn 0.5242 0.3310 0.7846
vn 0.3611 0.3310 0.8718
vn 0.1841 0.3310 0.9255
vn -0.0000 0.3310 0.9436
vn -0.1841 0.3310 0.9255
vn -0.3611 0.3310 0.8718
vn -0.5242 0.3310 0.7846
vn -0.6672 0.3310 0.6672
vn -0.7846 0.3310 0.5242
vn -0.8718 0.3310 0.3611
vn -0.9255 0.3310 0.1841
vn -0.9436 0.3310 -0.0000
vn -0.9255 0.3310 -0.1841
vn -0.8718 0.3310 -0.3611
vn -0.7846 0.3310 -0.5242
vn -0.6672 0.3310 -0.6672
vn -0.5242 0.3310 -0.7846
vn -0.3611 0.3310 -0.8718
vn -0.1841 0.3310 -0.9255
vn 0.1243 -0.3712 -0.9202
vn -0.1243 -0.3712 -0.9202
vn -0.1243 0.3712 -0.9202
vn 0.1243 0.3712 -0.9202
vn -0.0358 0.9987 0.0358
vn 0.0358 0.9987 0.0358
vn 0.0358 0.9987 -0.0358
vn -0.0358 0.9987 -0.0358
vn -0.1243 -0.3712 0.9202
vn 0.1243 -0.3712 0.9202
vn 0.1243 0.3712 0.9202
vn -0.1243 0.3712 0.9202
vn 0.9202 -0.3712 0.1243
vn 0.9202 -0.3712 -0.1243
vn 0.9202 0.3712 -0.1243
vn 0.9202 0.3712 0.1243
vn -0.9202 -0.3712 -0.1243
vn -0.9202 -0.3712 0.1243
vn -0.9202 0.3712 0.1243
vn -0.9202 0.3712 -0.1243
vn 0.5091 -0.8587 -0.0590
vn 0.5520 -0.7631 -0.3361
vn 0.8355 -0.2875 -0.4683
vn 0.1647 -0.9860 -0.0262
vn 0.1539 -0.9760 -0.1539
vn 0.0358 -0.9987 -0.0358
vn 0.0262 -0.9860 -0.1647
vn 0.0590 -0.8587 -0.5091
vn 0.3361 -0.7631 -0.5520
vn 0.4683 -0.2875 -0.8355
vn 0.8355 -0.2875 0.4683
vn 0.5519 -0.7631 0.3361
vn 0.5091 -0.8587 0.0590
vn 0.4683 -0.2875 0.8355
vn 0.3361 -0.7631 0.5519
vn 0.0590 -0.8587 0.5091
vn 0.0262 -0.9860 0.1647
vn 0.1539 -0.9760 0.1539
vn 0.0358 -0.9987 0.0358
vn 0.1647 -0.9860 0.0262
vn -0.8355 -0.2875 -0.4683
vn -0.5519 -0.7631 -0.3361
vn -0.5091 -0.8587 -0.0590
vn -0.4683 -0.2875 -0.8355
vn -0.3361 -0.7631 -0.5520
vn -0.0590 -0.8587 -0.5091
vn -0.0262 -0.9860 -0.1647
vn -0.1539 -0.9760 -0.1539
vn -0.0358 -0.9987 -0.0358
vn -0.1647 -0.9860 -0.0262
vn -0.4683 -0.2875 0.8355
vn -0.3361 -0.7631 0.5519
vn -0.0590 -0.8587 0.5091
vn -0.8355 -0.2875 0.4683
vn -0.5520 -0.7631 0.3361
vn -0.5091 -0.8587 0.0590
vn -0.1647 -0.9860 0.0262
vn -0.1539 -0.9760 0.1539
vn -0.0358 -0.9987 0.0358
vn -0.0262 -0.9860 0.1647
vn 0.8355 0.2875 -0.4683
vn 0.5519 0.7631 -0.3361
vn 0.5091 0.8587 -0.0590
vn 0.4683 0.2875 -0.8355
vn 0.3361 0.7631 -0.5519
vn 0.0590 0.8587 -0.5091
vn 0.0262 0.9860 -0.1647
vn 0.1539 0.9760 -0.1539
vn 0.1647 0.9860 -0.0262
vn 0.5091 0.8587 0.0590
vn 0.5519 0.7631 0.3361
vn 0.8355 0.2875 0.4683
vn 0.1647 0.9860 0.0262
vn 0.1539 0.9760 0.1539
vn 0.0262 0.9860 0.1647
vn 0.0590 0.8587 0.5091
vn 0.3361 0.7631 0.5519
vn 0.4683 0.2875 0.8355
vn -0.0590 0.8587 0.5091
vn -0.3361 0.7631 0.5519
vn -0.4683 0.2875 0.8355
vn -0.0262 0.9860 0.1647
vn -0.1539 0.9760 0.1539
vn -0.1647 0.9860 0.0262
vn -0.5091 0.8587 0.0590
vn -0.5519 0.7631 0.3361
vn -0.8355 0.2875 0.4683
vn -0.5091 0.8587 -0.0590
vn -0.5519 0.7631 -0.3361
vn -0.8355 0.2875 -0.4683
vn -0.1647 0.9860 -0.0262
vn -0.1539 0.9760 -0.1539
vn -0.0262 0.9860 -0.1647
vn -0.0590 0.8587 -0.5091
vn -0.3361 0.7631 -0.5520
vn -0.4683 0.2875 -0.8355
usemtl Material.002
s 1
f 6//1 33//2 4//3
f 4//3 33//2 1//4
f 9//5 33//2 8//6
f 1//4 33//2 10//7
f 10//7 33//2 9//5
f 8//6 33//2 7//8
f 7//8 33//2 5//9
f 5//9 33//2 3//10
f 3//10 33//2 2//11
f 2//11 33//2 11//12
f 11//12 33//2 12//13
f 12//13 33//2 13//14
f 13//14 33//2 14//15
f 14//15 33//2 15//16
f 15//16 33//2 16//17
f 16//17 33//2 17//18
f 17//18 33//2 18//19
f 18//19 33//2 19//20
f 19//20 33//2 20//21
f 20//21 33//2 21//22
f 21//22 33//2 22//23
f 22//23 33//2 23//24
f 23//24 33//2 24//25
f 24//25 33//2 25//26
f 25//26 33//2 26//27
f 26//27 33//2 27//28
f 27//28 33//2 28//29
f 28//29 33//2 29//30
f 29//30 33//2 30//31
f 30//31 33//2 31//32
f 31//32 33//2 32//33
f 32//33 33//2 6//1
f 39//1 37//33 66//2
f 37//33 34//32 66//2
f 42//30 41//29 66//2
f 34//32 43//31 66//2
f 43//31 42//30 66//2
f 41//29 40//28 66//2
f 40//28 38//27 66//2
f 38//27 36//26 66//2
f 36//26 35//25 66//2
f 35//25 44//24 66//2
f 44//24 45//23 66//2
f 45//23 46//22 66//2
f 46//22 47//21 66//2
f 47//21 48//20 66//2
f 48//20 49//19 66//2
f 49//19 50//18 66//2
f 50//18 51//17 66//2
f 51//17 52//16 66//2
f 52//16 53//15 66//2
f 53//15 54//14 66//2
f 54//14 55//13 66//2
f 55//13 56//12 66//2
f 56//12 57//11 66//2
f 57//11 58//10 66//2
f 58//10 59//9 66//2
f 59//9 60//8 66//2
f 60//8 61//6 66//2
f 61//6 62//5 66//2
f 62//5 63//7 66//2
f 63//7 64//4 66//2
f 64//4 65//3 66//2
f 65//3 39//1 66//2
f 72//18 70//17 99//2
f 70//17 67//16 99//2
f 75//14 74//13 99//2
f 67//16 76//15 99//2
f 76//15 75//14 99//2
f 74//13 73//12 99//2
f 73//12 71//11 99//2
f 71//11 69//10 99//2
f 69//10 68//9 99//2
f 68//9 77//8 99//2
f 77//8 78//6 99//2
f 78//6 79//5 99//2
f 79//5 80//7 99//2
f 80//7 81//4 99//2
f 81//4 82//3 99//2
f 82//3 83//1 99//2
f 83//1 84//33 99//2
f 84//33 85//32 99//2
f 85//32 86//31 99//2
f 86//31 87//30 99//2
f 87//30 88//29 99//2
f 88//29 89//28 99//2
f 89//28 90//27 99//2
f 90//27 91//26 99//2
f 91//26 92//25 99//2
f 92//25 93//24 99//2
f 93//24 94//23 99//2
f 94//23 95//22 99//2
f 95//22 96//21 99//2
f 96//21 97//20 99//2
f 97//20 98//19 99//2
f 98//19 72//18 99//2
f 105//18 132//2 103//19
f 103//19 132//2 100//20
f 108//22 132//2 107//23
f 100//20 132//2 109//21
f 109//21 132//2 108//22
f 107//23 132//2 106//24
f 106//24 132//2 104//25
f 104//25 132//2 102//26
f 102//26 132//2 101//27
f 101//27 132//2 110//28
f 110//28 132//2 111//29
f 111//29 132//2 112//30
f 112//30 132//2 113//31
f 113//31 132//2 114//32
f 114//32 132//2 115//33
f 115//33 132//2 116//1
f 116//1 132//2 117//3
f 117//3 132//2 118//4
f 118//4 132//2 119//7
f 119//7 132//2 120//5
f 120//5 132//2 121//6
f 121//6 132//2 122//8
f 122//8 132//2 123//9
f 123//9 132//2 124//10
f 124//10 132//2 125//11
f 125//11 132//2 126//12
f 126//12 132//2 127//13
f 127//13 132//2 128//14
f 128//14 132//2 129//15
f 129//15 132//2 130//16
f 130//16 132//2 131//17
f 131//17 132//2 105//18
f 135//34 158//35 219//36 182//37
f 206//38 194//39 183//40 218//41
f 169//42 146//43 195//44 205//45
f 145//46 133//47 181//48 193//49
f 157//50 170//51 207//52 217//53
f 133//47 136//54 138//55 137//56
f 136//54 140//57 141//58 138//55
f 134//59 139//60 141//58 140//57
f 139//60 143//61 144//62 141//58
f 135//34 142//63 144//62 143//61
f 142//63 137//56 138//55 144//62
f 138//55 141//58 144//62
f 145//46 148//64 150//65 149//66
f 148//64 152//67 153//68 150//65
f 146//43 151//69 153//68 152//67
f 151//69 155//70 156//71 153//68
f 147//72 154//73 156//71 155//70
f 154//73 149//66 150//65 156//71
f 150//65 153//68 156//71
f 157//50 160//74 162//75 161//76
f 160//74 164//77 165//78 162//75
f 158//35 163//79 165//78 164//77
f 163//79 167//80 168//81 165//78
f 159//82 166//83 168//81 167//80
f 166//83 161//76 162//75 168//81
f 162//75 165//78 168//81
f 169//42 172//84 174//85 173//86
f 172//84 176//87 177//88 174//85
f 170//51 175//89 177//88 176//87
f 175//89 179//90 180//91 177//88
f 171//92 178//93 180//91 179//90
f 178//93 173//86 174//85 180//91
f 174//85 177//88 180//91
f 181//48 184//94 186//95 185//96
f 184//94 188//97 189//98 186//95
f 182//37 187//99 189//98 188//97
f 187//99 191//100 192//101 189//98
f 183//40 190//102 192//101 191//100
f 190//102 185//96 186//95 192//101
f 186//95 189//98 192//101
f 193//49 196//103 198//104 197//105
f 196//103 200//106 201//107 198//104
f 194//39 199//108 201//107 200//106
f 199//108 203//109 204//110 201//107
f 195//44 202//111 204//110 203//109
f 202//111 197//105 198//104 204//110
f 198//104 201//107 204//110
f 205//45 208//112 210//113 209//114
f 208//112 212//115 213//116 210//113
f 206//38 211//117 213//116 212//115
f 211//117 215//118 216//119 213//116
f 207//52 214//120 216//119 215//118
f 214//120 209//114 210//113 216//119
f 210//113 213//116 216//119
f 217//53 220//121 222//122 221//123
f 220//121 224//124 225//125 222//122
f 218//41 223//126 225//125 224//124
f 223//126 227//127 228//128 225//125
f 219//36 226//129 228//128 227//127
f 226//129 221//123 222//122 228//128
f 222//122 225//125 228//128
f 133//47 145//46 149//66 136//54
f 136//54 149//66 154//73 140//57
f 140//57 154//73 147//72 134//59
f 146//43 169//42 173//86 151//69
f 151//69 173//86 178//93 155//70
f 155//70 178//93 171//92 147//72
f 170//51 157//50 161//76 175//89
f 175//89 161//76 166//83 179//90
f 179//90 166//83 159//82 171//92
f 158//35 135//34 143//61 163//79
f 163//79 143//61 139//60 167//80
f 167//80 139//60 134//59 159//82
f 183//40 194//39 200//106 190//102
f 190//102 200//106 196//103 185//96
f 185//96 196//103 193//49 181//48
f 194//39 206//38 212//115 199//108
f 199//108 212//115 208//112 203//109
f 203//109 208//112 205//45 195//44
f 206//38 218//41 224//124 211//117
f 211//117 224//124 220//121 215//118
f 215//118 220//121 217//53 207//52
f 218//41 183//40 191//100 223//126
f 223//126 191//100 187//99 227//127
f 227//127 187//99 182//37 219//36
f 169//42 205//45 209//114 172//84
f 172//84 209//114 214//120 176//87
f 176//87 214//120 207//52 170//51
f 219//36 158//35 164//77 226//129
f 226//129 164//77 160//74 221//123
f 221//123 160//74 157//50 217//53
f 135//34 182//37 188//97 142//63
f 142//63 188//97 184//94 137//56
f 137//56 184//94 181//48 133//47
f 195//44 146//43 152//67 202//111
f 202//111 152//67 148//64 197//105
f 197//105 148//64 145//46 193//49
f 171//92 159//82 134//59 147//72
