# Blender v2.78 (sub 0) OBJ File: ''
# www.blender.org
mtllib Cube_highpoly.mtl
o Cube
v -0.467322 0.000000 0.467322
v -0.467322 0.032678 0.500000
v -0.500000 0.032678 0.467322
v -0.467322 0.004366 0.483640
v -0.483640 0.004366 0.467322
v -0.482949 0.008606 0.482949
v -0.483640 0.032678 0.495634
v -0.467322 0.016360 0.495634
v -0.482949 0.017051 0.491394
v -0.495634 0.016360 0.467322
v -0.495634 0.032678 0.483640
v -0.491394 0.017051 0.482949
v -0.467322 0.967322 0.500000
v -0.467322 1.000000 0.467322
v -0.500000 0.967322 0.467322
v -0.467322 0.983640 0.495634
v -0.483640 0.967322 0.495634
v -0.482949 0.982949 0.491394
v -0.483640 0.995634 0.467322
v -0.467322 0.995634 0.483640
v -0.482949 0.991394 0.482949
v -0.495634 0.967322 0.483640
v -0.495634 0.983640 0.467322
v -0.491394 0.982949 0.482949
v -0.467322 0.000000 -0.467322
v -0.500000 0.032678 -0.467322
v -0.467322 0.032678 -0.500000
v -0.483640 0.004366 -0.467322
v -0.467322 0.004366 -0.483640
v -0.482949 0.008606 -0.482949
v -0.495634 0.032678 -0.483640
v -0.495634 0.016360 -0.467322
v -0.491394 0.017051 -0.482949
v -0.467322 0.016360 -0.495634
v -0.483640 0.032678 -0.495634
v -0.482949 0.017051 -0.491394
v -0.467322 1.000000 -0.467322
v -0.467322 0.967322 -0.500000
v -0.500000 0.967322 -0.467322
v -0.467322 0.995634 -0.483640
v -0.483640 0.995634 -0.467322
v -0.482949 0.991394 -0.482949
v -0.483640 0.967322 -0.495634
v -0.467322 0.983640 -0.495634
v -0.482949 0.982949 -0.491394
v -0.495634 0.983640 -0.467322
v -0.495634 0.967322 -0.483640
v -0.491394 0.982949 -0.482949
v 0.467322 0.000000 0.467322
v 0.500000 0.032678 0.467322
v 0.467322 0.032678 0.500000
v 0.483640 0.004366 0.467322
v 0.467322 0.004366 0.483640
v 0.482949 0.008606 0.482949
v 0.495634 0.032678 0.483640
v 0.495634 0.016360 0.467322
v 0.491394 0.017051 0.482949
v 0.467322 0.016360 0.495634
v 0.483640 0.032678 0.495634
v 0.482949 0.017051 0.491394
v 0.467322 1.000000 0.467322
v 0.467322 0.967322 0.500000
v 0.500000 0.967322 0.467322
v 0.467322 0.995634 0.483640
v 0.483640 0.995634 0.467322
v 0.482949 0.991394 0.482949
v 0.483640 0.967322 0.495634
v 0.467322 0.983640 0.495634
v 0.482949 0.982949 0.491394
v 0.495634 0.983640 0.467322
v 0.495634 0.967322 0.483640
v 0.491394 0.982949 0.482949
v 0.467322 0.000000 -0.467322
v 0.467322 0.032678 -0.500000
v 0.500000 0.032678 -0.467322
v 0.467322 0.004366 -0.483640
v 0.483640 0.004366 -0.467322
v 0.482949 0.008606 -0.482949
v 0.483640 0.032678 -0.495634
v 0.467322 0.016360 -0.495634
v 0.482949 0.017051 -0.491394
v 0.495634 0.016360 -0.467322
v 0.495634 0.032678 -0.483640
v 0.491394 0.017051 -0.482949
v 0.467322 1.000000 -0.467322
v 0.500000 0.967322 -0.467322
v 0.467322 0.967322 -0.500000
v 0.483640 0.995634 -0.467322
v 0.467322 0.995634 -0.483640
v 0.482949 0.991394 -0.482949
v 0.495634 0.967322 -0.483640
v 0.495634 0.983640 -0.467322
v 0.491394 0.982949 -0.482949
v 0.467322 0.983640 -0.495634
v 0.483640 0.967322 -0.495634
v 0.482949 0.982949 -0.491394
vn 0.0000 0.0000 1.0000
vn 1.0000 0.0000 0.0000
vn 0.0000 1.0000 0.0000
vn -1.0000 0.0000 0.0000
vn 0.0000 0.0000 -1.0000
vn 0.0000 -1.0000 0.0000
vn -0.1296 -0.9831 0.1296
vn -0.1216 -0.8623 0.4915
vn -0.4473 -0.7744 0.4473
vn -0.4915 -0.8623 0.1216
vn -0.1216 -0.4915 0.8623
vn -0.4473 -0.4473 0.7744
vn -0.1296 -0.1296 0.9831
vn -0.4915 -0.1216 0.8623
vn -0.8623 -0.1216 0.4915
vn -0.7744 -0.4473 0.4473
vn -0.9830 -0.1296 0.1296
vn -0.8623 -0.4915 0.1216
vn -0.1296 0.1296 0.9830
vn -0.1216 0.4915 0.8623
vn -0.4473 0.4473 0.7744
vn -0.4915 0.1216 0.8623
vn -0.1216 0.8623 0.4915
vn -0.4473 0.7744 0.4473
vn -0.1296 0.9830 0.1296
vn -0.4915 0.8623 0.1216
vn -0.8623 0.4915 0.1216
vn -0.7744 0.4473 0.4473
vn -0.9830 0.1296 0.1296
vn -0.8623 0.1216 0.4915
vn -0.1296 -0.9831 -0.1296
vn -0.4915 -0.8623 -0.1216
vn -0.4473 -0.7744 -0.4473
vn -0.1216 -0.8623 -0.4915
vn -0.8623 -0.4915 -0.1216
vn -0.7744 -0.4473 -0.4473
vn -0.9830 -0.1296 -0.1296
vn -0.8623 -0.1216 -0.4915
vn -0.4915 -0.1216 -0.8623
vn -0.4473 -0.4473 -0.7744
vn -0.1296 -0.1296 -0.9831
vn -0.1216 -0.4915 -0.8623
vn -0.1296 0.9830 -0.1296
vn -0.1216 0.8623 -0.4915
vn -0.4473 0.7744 -0.4473
vn -0.4915 0.8623 -0.1216
vn -0.1216 0.4915 -0.8623
vn -0.4473 0.4473 -0.7744
vn -0.1296 0.1296 -0.9830
vn -0.4915 0.1216 -0.8623
vn -0.8623 0.1216 -0.4915
vn -0.7744 0.4473 -0.4473
vn -0.9830 0.1296 -0.1296
vn -0.8623 0.4915 -0.1216
vn 0.1296 -0.9831 0.1296
vn 0.4915 -0.8623 0.1216
vn 0.4473 -0.7744 0.4473
vn 0.1216 -0.8623 0.4915
vn 0.8623 -0.4915 0.1216
vn 0.7744 -0.4473 0.4473
vn 0.9830 -0.1296 0.1296
vn 0.8623 -0.1216 0.4915
vn 0.4915 -0.1216 0.8623
vn 0.4473 -0.4473 0.7744
vn 0.1296 -0.1296 0.9831
vn 0.1216 -0.4915 0.8623
vn 0.1296 0.9830 0.1296
vn 0.1216 0.8623 0.4915
vn 0.4473 0.7744 0.4473
vn 0.4915 0.8623 0.1216
vn 0.1216 0.4915 0.8623
vn 0.4473 0.4473 0.7744
vn 0.1296 0.1296 0.9830
vn 0.4915 0.1216 0.8623
vn 0.8623 0.1216 0.4915
vn 0.7744 0.4473 0.4473
vn 0.9830 0.1296 0.1296
vn 0.8623 0.4915 0.1216
vn 0.1296 -0.9831 -0.1296
vn 0.1216 -0.8623 -0.4915
vn 0.4473 -0.7744 -0.4473
vn 0.4915 -0.8623 -0.1216
vn 0.1216 -0.4915 -0.8623
vn 0.4473 -0.4473 -0.7744
vn 0.1296 -0.1296 -0.9831
vn 0.4915 -0.1216 -0.8623
vn 0.8623 -0.1216 -0.4915
vn 0.7744 -0.4473 -0.4473
vn 0.9830 -0.1296 -0.1296
vn 0.8623 -0.4915 -0.1216
vn 0.1296 0.9830 -0.1296
vn 0.4915 0.8623 -0.1216
vn 0.4473 0.7744 -0.4473
vn 0.1216 0.8623 -0.4915
vn 0.8623 0.4915 -0.1216
vn 0.7744 0.4473 -0.4473
vn 0.9830 0.1296 -0.1296
vn 0.8623 0.1216 -0.4915
vn 0.4915 0.1216 -0.8623
vn 0.4473 0.4473 -0.7744
vn 0.1296 0.1296 -0.9830
vn 0.1216 0.4915 -0.8623
usemtl None
s off
f 51//1 62//1 13//1 2//1
f 75//2 86//2 63//2 50//2
f 85//3 37//3 14//3 61//3
f 3//4 15//4 39//4 26//4
f 27//5 38//5 87//5 74//5
f 25//6 73//6 49//6 1//6
s 1
f 1//7 4//8 6//9 5//10
f 4//8 8//11 9//12 6//9
f 2//13 7//14 9//12 8//11
f 7//14 11//15 12//16 9//12
f 3//17 10//18 12//16 11//15
f 10//18 5//10 6//9 12//16
f 6//9 9//12 12//16
f 13//19 16//20 18//21 17//22
f 16//20 20//23 21//24 18//21
f 14//25 19//26 21//24 20//23
f 19//26 23//27 24//28 21//24
f 15//29 22//30 24//28 23//27
f 22//30 17//22 18//21 24//28
f 18//21 21//24 24//28
f 25//31 28//32 30//33 29//34
f 28//32 32//35 33//36 30//33
f 26//37 31//38 33//36 32//35
f 31//38 35//39 36//40 33//36
f 27//41 34//42 36//40 35//39
f 34//42 29//34 30//33 36//40
f 30//33 33//36 36//40
f 37//43 40//44 42//45 41//46
f 40//44 44//47 45//48 42//45
f 38//49 43//50 45//48 44//47
f 43//50 47//51 48//52 45//48
f 39//53 46//54 48//52 47//51
f 46//54 41//46 42//45 48//52
f 42//45 45//48 48//52
f 49//55 52//56 54//57 53//58
f 52//56 56//59 57//60 54//57
f 50//61 55//62 57//60 56//59
f 55//62 59//63 60//64 57//60
f 51//65 58//66 60//64 59//63
f 58//66 53//58 54//57 60//64
f 54//57 57//60 60//64
f 61//67 64//68 66//69 65//70
f 64//68 68//71 69//72 66//69
f 62//73 67//74 69//72 68//71
f 67//74 71//75 72//76 69//72
f 63//77 70//78 72//76 71//75
f 70//78 65//70 66//69 72//76
f 66//69 69//72 72//76
f 73//79 76//80 78//81 77//82
f 76//80 80//83 81//84 78//81
f 74//85 79//86 81//84 80//83
f 79//86 83//87 84//88 81//84
f 75//89 82//90 84//88 83//87
f 82//90 77//82 78//81 84//88
f 78//81 81//84 84//88
f 85//91 88//92 90//93 89//94
f 88//92 92//95 93//96 90//93
f 86//97 91//98 93//96 92//95
f 91//98 95//99 96//100 93//96
f 87//101 94//102 96//100 95//99
f 94//102 89//94 90//93 96//100
f 90//93 93//96 96//100
f 25//31 1//7 5//10 28//32
f 28//32 5//10 10//18 32//35
f 32//35 10//18 3//17 26//37
f 2//13 13//19 17//22 7//14
f 7//14 17//22 22//30 11//15
f 11//15 22//30 15//29 3//17
f 14//25 37//43 41//46 19//26
f 19//26 41//46 46//54 23//27
f 23//27 46//54 39//53 15//29
f 38//49 27//41 35//39 43//50
f 43//50 35//39 31//38 47//51
f 47//51 31//38 26//37 39//53
f 73//79 25//31 29//34 76//80
f 76//80 29//34 34//42 80//83
f 80//83 34//42 27//41 74//85
f 37//43 85//91 89//94 40//44
f 40//44 89//94 94//102 44//47
f 44//47 94//102 87//101 38//49
f 86//97 75//89 83//87 91//98
f 91//98 83//87 79//86 95//99
f 95//99 79//86 74//85 87//101
f 49//55 73//79 77//82 52//56
f 52//56 77//82 82//90 56//59
f 56//59 82//90 75//89 50//61
f 85//91 61//67 65//70 88//92
f 88//92 65//70 70//78 92//95
f 92//95 70//78 63//77 86//97
f 62//73 51//65 59//63 67//74
f 67//74 59//63 55//62 71//75
f 71//75 55//62 50//61 63//77
f 1//7 49//55 53//58 4//8
f 4//8 53//58 58//66 8//11
f 8//11 58//66 51//65 2//13
f 61//67 14//25 20//23 64//68
f 64//68 20//23 16//20 68//71
f 68//71 16//20 13//19 62//73
